<?xml version="1.0" encoding="UTF-8" standalone="no"?>
<svg
   viewBox="0 0 170 20"
   version="1.1"
   id="use-href-target"
   sodipodi:docname="mc-logo-default.svg"
   inkscape:version="1.4.2 (ebf0e940d0, 2025-05-08)"
   inkscape:export-filename="mc-logo-default.png"
   inkscape:export-xdpi="192"
   inkscape:export-ydpi="192"
   xmlns:inkscape="http://www.inkscape.org/namespaces/inkscape"
   xmlns:sodipodi="http://sodipodi.sourceforge.net/DTD/sodipodi-0.dtd"
   xmlns="http://www.w3.org/2000/svg"
   xmlns:svg="http://www.w3.org/2000/svg">
  <defs
     id="defs1" />
  <sodipodi:namedview
     id="namedview1"
     pagecolor="#ffffff"
     bordercolor="#111111"
     borderopacity="1"
     inkscape:showpageshadow="0"
     inkscape:pageopacity="0"
     inkscape:pagecheckerboard="1"
     inkscape:deskcolor="#d1d1d1"
     inkscape:zoom="3.9176471"
     inkscape:cx="84.999999"
     inkscape:cy="9.9549549"
     inkscape:window-width="1920"
     inkscape:window-height="1003"
     inkscape:window-x="0"
     inkscape:window-y="0"
     inkscape:window-maximized="1"
     inkscape:current-layer="use-href-target" />
  <g
     id="Storybook-References"
     stroke="none"
     stroke-width="1"
     fill-rule="evenodd"
     style="fill:#affc41;fill-opacity:1">
    <g
       id="Iconography"
       transform="translate(-580.000000, -443.000000)"
       style="fill:#affc41;fill-opacity:1">
      <g
         id="Mixcloud-Logo-Copy"
         transform="translate(580.000000, 443.000000)"
         style="fill:#affc41;fill-opacity:1">
        <path
           d="M169.773433,9.95970149 C169.773433,1.62208955 164.561489,0.275223881 159.592487,0.275223881 L152.843398,0.275223881 L152.843398,19.6716418 L159.592487,19.6716418 C164.561489,19.6716418 169.773433,18.3247761 169.773433,9.95970149 L169.773433,9.95970149 Z M166.26387,9.95970149 C166.26387,16.1802985 163.024046,16.5931343 159.592487,16.5931343 L157.999965,16.5931343 L157.896655,16.5964179 C157.232434,16.5892537 156.883205,16.6952239 156.555709,16.8883582 L155.818249,17.359403 L155.203152,16.7423881 L155.634256,16.4958209 C155.634553,16.4955224 155.634256,16.4955224 155.634851,16.4949254 C155.907566,16.3086567 156.128179,16.0349254 156.271086,15.6492537 C156.339562,15.4191045 156.378564,15.1468657 156.378862,14.8223881 L156.38035,14.8226866 L156.38035,5.04835821 C156.375587,4.85134328 156.355937,4.67492537 156.323783,4.51492537 C156.186532,4.04507463 155.942399,3.72716418 155.634851,3.51701493 C155.634256,3.51671642 155.634553,3.51641791 155.634256,3.5161194 L155.203152,3.26955224 L155.818249,2.65253731 L156.555709,3.12358209 C156.698914,3.2080597 156.868319,3.27462687 157.066602,3.32358209 C157.135079,3.33552239 157.309545,3.34626866 157.385464,3.35373134 L159.592487,3.35373134 C163.024046,3.35373134 166.26387,3.76656716 166.26387,9.95970149 L166.26387,9.95970149 Z M149.561891,12.4656716 L149.561891,0.275223881 L146.024939,0.275223881 L146.024939,11.1447761 C146.024939,14.8044776 145.283608,16.8683582 141.247671,16.8683582 C137.212032,16.8683582 136.470701,14.8044776 136.470701,11.1447761 L136.470701,0.275223881 L132.933748,0.275223881 L132.933748,12.4656716 C132.933748,17.3080597 135.675482,19.9468657 141.247671,19.9468657 C146.792767,19.9468657 149.561891,17.3080597 149.561891,12.4656716 L149.561891,12.4656716 Z M130.169387,9.95970149 C130.169387,4.31731343 126.577058,-1.27261386e-14 120.647303,-1.27261386e-14 C114.68986,-1.27261386e-14 111.097828,4.31731343 111.097828,9.95970149 C111.097828,15.6298507 114.68986,19.9468657 120.647303,19.9468657 C126.577058,19.9468657 130.169387,15.6298507 130.169387,9.95970149 L130.169387,9.95970149 Z M126.632434,9.95970149 C126.632434,14.0608955 124.655552,16.8683582 120.647303,16.8683582 C116.639054,16.8683582 114.635079,14.0608955 114.635079,9.95970149 C114.635079,5.88626866 116.639054,3.07850746 120.647303,3.07850746 C124.655552,3.07850746 126.632434,5.88626866 126.632434,9.95970149 L126.632434,9.95970149 Z M94.7197723,19.9462687 L108.923555,17.4555224 L108.923555,14.0653731 L95.1553415,16.4531343 L94.7662172,16.0271642 C95.1785639,15.9008955 96.167303,15.520597 96.167303,14.7671642 C96.1684939,14.7459701 96.1729597,0.274328358 96.1729597,0.274328358 L92.636007,0.274328358 L92.636007,17.9119403 C92.636007,19.2313433 93.4038354,19.9737313 94.7197723,19.9462687 L94.7197723,19.9462687 Z M74.2902977,9.95970149 C74.2902977,5.69343284 76.5410858,3.07850746 80.3835026,3.07850746 C83.4569002,3.07850746 85.5981261,4.73014925 86.0366725,7.75791045 L89.5774956,7.75791045 C89.0008056,2.96865672 85.5704378,-1.27261386e-14 80.3281261,-1.27261386e-14 C74.3724694,-1.27261386e-14 70.7530473,4.31731343 70.7530473,9.95970149 C70.7530473,15.6298507 74.3724694,19.9468657 80.3281261,19.9468657 C85.5704378,19.9468657 89.0008056,16.978209 89.5774956,12.161791 L86.0366725,12.161791 C85.5981261,15.1895522 83.4569002,16.8683582 80.3835026,16.8683582 C76.5410858,16.8683582 74.2902977,14.2534328 74.2902977,9.95970149 L74.2902977,9.95970149 Z M59.0010158,12.9435821 L68.1935201,19.5755224 L68.1935201,15.5035821 L60.4003152,9.97343284 L68.1935201,4.44358209 L68.1935201,0.371641791 L59.0010158,7.03074627 L58.0128722,7.03074627 L48.8474606,0.371641791 L48.8474606,4.4441791 L56.613275,9.97343284 L48.8474606,15.5026866 L48.8474606,19.5755224 L58.0128722,12.9435821 L59.0010158,12.9435821 Z M26.4372329,11.7391045 L45.8339054,11.7391045 L45.8339054,8.20776119 L26.4372329,8.20776119 L26.4372329,11.7391045 Z M19.1567075,19.6716418 L22.6936602,19.6716418 L22.6936602,0.275223881 L15.6977583,0.275223881 L11.799965,18.7671642 L10.893993,18.7671642 L6.99590193,0.275223881 L0,0.275223881 L0,19.6716418 L3.53695271,19.6716418 L3.53695271,3.49164179 L2.90607706,1.17970149 L4.01985989,1.17970149 L8.10998249,19.6716418 L14.6110683,19.6716418 L18.6738004,1.17970149 L19.814676,1.17970149 L19.1567075,3.49164179 L19.1567075,19.6716418 Z"
           id="Mixcloud-Logo"
           style="fill:#affc41;fill-opacity:1" />
      </g>
    </g>
  </g>
</svg>
